<svg xmlns="http://www.w3.org/2000/svg" width="345" height="120" viewBox="0 0 345 120" fill="none"><g clip-path="url(#clip0_123_1262)"><path d="M193.857 82.5815L183.071 49.6211L172.41 82.5815H153.347L132.652 20.1561H152.97L163.882 58.4852L175.797 20.1561H190.345L202.26 58.4852L213.172 20.1561H233.49L212.921 82.5815H193.857Z" fill="white"></path><path d="M263.688 83.9548C253.989 83.9548 246.004 80.875 239.733 74.7159C233.546 68.5567 230.452 60.7327 230.452 51.2438C230.452 41.9216 233.587 34.181 239.859 28.0217C246.213 21.8624 254.156 18.7827 263.688 18.7827C268.287 18.7827 272.593 19.5734 276.606 21.1549C280.703 22.7363 284.299 25.0253 287.392 28.0217C290.57 31.0181 293.036 34.8884 294.792 39.6328C296.548 44.377 297.342 49.7456 297.175 55.7386H248.889C249.223 59.1511 250.728 62.0227 253.404 64.3531C256.079 66.6007 259.842 67.7241 264.692 67.7241C267.451 67.7241 269.959 67.183 272.217 66.1013C274.474 64.9358 275.979 63.5209 276.732 61.8561H296.548C294.541 68.4317 290.528 73.7587 284.508 77.8373C278.488 81.9155 271.548 83.9548 263.688 83.9548ZM263.186 33.7648C259.591 33.7648 256.581 34.6804 254.156 36.5114C251.815 38.3428 250.227 40.7566 249.39 43.753H276.23C275.31 40.3404 273.596 37.8434 271.088 36.2618C268.663 34.5971 266.029 33.7648 263.186 33.7648Z" fill="white"></path><path d="M302.657 82.5815V20.1561H321.595V29.5199C322.598 26.69 324.479 24.3178 327.239 22.4034C329.998 20.4058 333.092 19.407 336.52 19.407C338.694 19.407 340.743 19.6567 342.665 20.1561V39.2583C339.739 38.2595 336.938 37.7601 334.262 37.7601C330.249 37.7601 327.113 39.175 324.856 42.0049C322.682 44.7515 321.595 48.414 321.595 52.992V82.5815H302.657Z" fill="white"></path><path d="M18.9384 108.675H0V20.1561H18.9384V26.3986C20.2762 24.401 22.4919 22.6531 25.5856 21.1549C28.6793 19.5734 32.1492 18.7827 35.9953 18.7827C44.1059 18.7827 50.9621 21.9872 56.5644 28.3962C62.2499 34.8052 65.0927 42.4627 65.0927 51.3688C65.0927 60.2749 62.2499 67.9323 56.5644 74.3414C50.9621 80.7504 44.1059 83.9548 35.9953 83.9548C32.1492 83.9548 28.6793 83.2058 25.5856 81.7076C22.4919 80.1261 20.2762 78.3367 18.9384 76.339V108.675ZM21.3213 62.4804C23.997 65.3936 27.4669 66.8502 31.7312 66.8502C35.9953 66.8502 39.4236 65.3936 42.0157 62.4804C44.6913 59.5673 46.0291 55.8635 46.0291 51.3688C46.0291 46.8741 44.6913 43.1703 42.0157 40.2571C39.4236 37.344 35.9953 35.8874 31.7312 35.8874C27.4669 35.8874 23.997 37.344 21.3213 40.2571C18.7293 43.1703 17.4333 46.8741 17.4333 51.3688C17.4333 55.8635 18.7293 59.5673 21.3213 62.4804Z" fill="white"></path><path d="M169.368 116.955C167.272 118.985 164.739 120 161.772 120C158.804 120 156.272 118.985 154.175 116.955C152.079 114.898 151.03 112.38 151.03 109.403C151.03 106.425 152.079 103.921 154.175 101.891C156.272 99.8333 158.804 98.8048 161.772 98.8048C164.739 98.8048 167.272 99.8333 169.368 101.891C171.465 103.921 172.513 106.425 172.513 109.403C172.513 112.38 171.465 114.898 169.368 116.955ZM158.504 112.935C159.376 113.828 160.465 114.275 161.772 114.275C163.079 114.275 164.154 113.828 164.998 112.935C165.869 112.042 166.305 110.864 166.305 109.403C166.305 107.941 165.869 106.763 164.998 105.87C164.154 104.977 163.079 104.53 161.772 104.53C160.465 104.53 159.376 104.977 158.504 105.87C157.66 106.763 157.238 107.941 157.238 109.403C157.238 110.864 157.66 112.042 158.504 112.935Z" fill="white"></path><path d="M188.405 119.554V104.57H184.321V99.2513H188.405V97.0182C188.405 94.5275 189.182 92.5517 190.734 91.0899C192.313 89.6008 194.273 88.8564 196.615 88.8564C198.085 88.8564 199.31 89.0054 200.29 89.3033V94.7036C199.719 94.4601 198.983 94.3383 198.085 94.3383C196.832 94.3383 195.934 94.609 195.39 95.1504C194.845 95.6915 194.572 96.5714 194.572 97.7897V99.2513H200.29V104.57H194.572V119.554H188.405Z" fill="white"></path><path d="M241.803 119.797C239.407 119.797 237.433 119.148 235.881 117.848C234.356 116.522 233.593 114.613 233.593 112.123V104.57H229.509V99.2513H233.593V93.6074H239.76V99.2513H245.478V104.57H239.76V110.864C239.76 112.082 240.033 112.962 240.577 113.504C241.122 114.045 242.007 114.316 243.232 114.316C244.158 114.316 244.907 114.194 245.478 113.95V119.392C244.58 119.662 243.355 119.797 241.803 119.797Z" fill="white"></path><path d="M277.107 119.554L273.595 108.834L270.123 119.554H263.915L257.176 99.2513H263.793L267.346 111.717L271.226 99.2513H275.964L279.844 111.717L283.397 99.2513H290.013L283.315 119.554H277.107Z" fill="white"></path><path d="M319.574 116.955C317.477 118.985 314.945 120 311.977 120C309.01 120 306.477 118.985 304.381 116.955C302.284 114.898 301.236 112.38 301.236 109.403C301.236 106.425 302.284 103.921 304.381 101.891C306.477 99.8333 309.01 98.8048 311.977 98.8048C314.945 98.8048 317.477 99.8333 319.574 101.891C321.67 103.921 322.719 106.425 322.719 109.403C322.719 112.38 321.67 114.898 319.574 116.955ZM308.71 112.935C309.581 113.828 310.67 114.275 311.977 114.275C313.284 114.275 314.36 113.828 315.204 112.935C316.075 112.042 316.511 110.864 316.511 109.403C316.511 107.941 316.075 106.763 315.204 105.87C314.36 104.977 313.284 104.53 311.977 104.53C310.67 104.53 309.581 104.977 308.71 105.87C307.866 106.763 307.444 107.941 307.444 109.403C307.444 110.864 307.866 112.042 308.71 112.935Z" fill="white"></path><path fill-rule="evenodd" clip-rule="evenodd" d="M120.803 102.77C145.875 96.0956 156.833 85.05 150.115 60.1394C143.396 35.229 116.5 4.63147 91.428 11.3062C66.3563 17.9809 52.6033 59.4003 59.3214 84.3109C66.0394 109.221 95.7315 109.445 120.803 102.77ZM110.101 93.4775C131.393 87.6801 143.099 76.4996 133.246 51.384C126.829 35.0259 111.829 22.8726 95.0065 27.351C78.1847 31.8294 69.7871 48.1881 69.7864 66.1034C69.7857 81.4461 77.195 102.438 110.101 93.4775Z" fill="white"></path></g><defs><clipPath id="clip0_123_1262"><rect width="344.571" height="120" fill="white"></rect></clipPath></defs></svg>